<?xml version="1.0" standalone="no"?>
<!DOCTYPE svg PUBLIC "-//W3C//DTD SVG 20010904//EN"
 "http://www.w3.org/TR/2001/REC-SVG-20010904/DTD/svg10.dtd">
<svg version="1.0" xmlns="http://www.w3.org/2000/svg"
 width="100.000000pt" height="100.000000pt" viewBox="0 0 100.000000 100.000000"
 preserveAspectRatio="xMidYMid meet">

<g transform="translate(0.000000,100.000000) scale(0.100000,-0.100000)"
fill="#000000" stroke="none">
<path d="M318 800 c-93 -17 -158 -99 -158 -199 0 -99 88 -231 228 -343 100
-79 124 -79 224 0 141 112 228 244 228 344 0 117 -83 200 -200 200 -49 0 -69
-5 -100 -26 l-40 -26 -37 24 c-43 27 -91 36 -145 26z m136 -73 c43 -33 49 -33
93 1 47 35 136 39 179 6 43 -31 65 -67 71 -113 5 -35 0 -54 -31 -115 -28 -58
-55 -91 -124 -157 -49 -46 -100 -90 -115 -98 -37 -20 -59 -7 -169 97 -67 64
-96 100 -123 154 -37 74 -42 108 -24 155 36 97 160 132 243 70z"/>
</g>
</svg>
